<svg width="36" height="48" viewBox="0 0 36 48" fill="none" xmlns="http://www.w3.org/2000/svg">
<g opacity="0.4">
<ellipse cx="18" cy="47" rx="3" ry="1" fill="#28323C"/>
</g>
<path d="M5.58854 30.3445C-0.740665 22.9605 -1.36305 12.2765 5.54859 5.63875C8.88266 2.44032 13.3954 0.6 18.001 0.6C22.6056 0.6 27.1175 2.44037 30.4516 5.63897C37.363 12.2768 36.7406 22.9605 30.4114 30.3445C29.8445 31.0059 29.1901 31.7429 28.4792 32.5435C25.2211 36.2126 20.777 41.2173 18.1386 46.4H17.8624C15.2233 41.2176 10.7794 36.2131 7.52131 32.5441C6.8102 31.7433 6.15557 31.0061 5.58854 30.3445Z" fill="#00B8FF" fill-opacity="0.9" stroke="#00AAFE" stroke-width="1.2"/>
<path fill-rule="evenodd" clip-rule="evenodd" d="M22.3848 14.5732C22.3388 14.5112 22.1788 14.3972 21.9038 14.2292C21.6298 14.0612 21.2858 13.8862 20.8728 13.7032C20.4608 13.5192 20.0108 13.3592 19.5228 13.2212C19.0338 13.0842 18.5458 13.0152 18.0568 13.0152C16.7138 13.0152 16.0418 13.4662 16.0418 14.3662C16.0418 14.6412 16.1138 14.8702 16.2598 15.0542C16.4038 15.2372 16.6178 15.4012 16.9008 15.5462C17.1828 15.6912 17.5378 15.8252 17.9658 15.9472C18.3928 16.0692 18.8888 16.2072 19.4528 16.3592C20.2328 16.5732 20.9338 16.8052 21.5608 17.0562C22.1868 17.3092 22.7168 17.6222 23.1528 17.9962C23.5868 18.3712 23.9228 18.8242 24.1588 19.3582C24.3968 19.8932 24.5148 20.5342 24.5148 21.2822C24.5148 22.1982 24.3428 22.9732 23.9988 23.6062C23.6558 24.2412 23.2018 24.7512 22.6368 25.1412C22.0718 25.5302 21.4228 25.8132 20.6908 25.9882C19.9568 26.1632 19.2018 26.2512 18.4238 26.2512C17.8278 26.2512 17.2178 26.2062 16.5908 26.1142C15.9658 26.0222 15.3548 25.8892 14.7598 25.7132C14.1638 25.5382 13.5878 25.3282 13.0308 25.0842C12.4728 24.8402 11.9578 24.5572 11.4858 24.2372L13.1338 20.9622C13.1938 21.0392 13.3928 21.1832 13.7298 21.3972C14.0648 21.6102 14.4808 21.8242 14.9768 22.0382C15.4728 22.2522 16.0258 22.4432 16.6378 22.6102C17.2468 22.7782 17.8648 22.8622 18.4918 22.8622C19.8198 22.8622 20.4848 22.4582 20.4848 21.6492C20.4848 21.3442 20.3848 21.0922 20.1868 20.8932C19.9888 20.6942 19.7128 20.5152 19.3628 20.3552C19.0108 20.1942 18.5948 20.0462 18.1138 19.9092C17.6328 19.7712 17.1108 19.6192 16.5458 19.4502C15.7978 19.2202 15.1488 18.9732 14.5988 18.7072C14.0498 18.4392 13.5948 18.1312 13.2368 17.7782C12.8778 17.4272 12.6108 17.0232 12.4348 16.5652C12.2588 16.1072 12.1718 15.5732 12.1718 14.9622C12.1718 14.1072 12.3318 13.3512 12.6528 12.6952C12.9728 12.0392 13.4088 11.4852 13.9578 11.0352C14.5068 10.5852 15.1448 10.2452 15.8698 10.0152C16.5948 9.78722 17.3618 9.67322 18.1718 9.67322C18.7368 9.67322 19.2928 9.72522 19.8438 9.83322C20.3928 9.93922 20.9188 10.0772 21.4228 10.2452C21.9268 10.4142 22.3968 10.6032 22.8318 10.8172C23.2658 11.0312 23.6668 11.2452 24.0338 11.4582L22.3848 14.5732Z" fill="white"/>
</svg>
