<svg width="24" height="24" viewBox="0 0 24 24" fill="none" xmlns="http://www.w3.org/2000/svg">
<path fill-rule="evenodd" clip-rule="evenodd" d="M5.80012 11.8996C5.80012 15.2636 8.53612 17.9996 11.9001 17.9996C15.2631 17.9996 18.0001 15.2636 18.0001 11.8996C18.0001 8.53657 15.2631 5.79957 11.9001 5.79957C8.53612 5.79957 5.80012 8.53657 5.80012 11.8996ZM19.3651 11.1996H21.8001V12.6006H19.3651C19.0321 16.1776 16.1771 19.0316 12.6001 19.3646V21.7996H11.2001V19.3646C7.62212 19.0316 4.76812 16.1776 4.43512 12.6006H2.00012V11.1996H4.43512C4.76812 7.62257 7.62212 4.76857 11.2001 4.43557V1.99957H12.6001V4.43557C16.1771 4.76857 19.0311 7.62257 19.3651 11.1996ZM11.9001 14.9C13.5571 14.9 14.9001 13.557 14.9001 11.9C14.9001 10.243 13.5571 8.89997 11.9001 8.89997C10.2431 8.89997 8.90012 10.243 8.90012 11.9C8.90012 13.557 10.2431 14.9 11.9001 14.9Z" fill="#374553"/>
</svg>
